<?xml version="1.0" encoding="utf-8"?>
<!-- Generator: Adobe Illustrator 24.0.1, SVG Export Plug-In . SVG Version: 6.00 Build 0)  -->
<svg version="1.1" id="Calque_1" xmlns="http://www.w3.org/2000/svg" xmlns:xlink="http://www.w3.org/1999/xlink" x="0px" y="0px"
	 viewBox="0 0 285 154" style="enable-background:new 0 0 285 154;" xml:space="preserve">
<style type="text/css">
	.st0{opacity:0.1;fill:#001CA9;enable-background:new    ;}
	.st1{opacity:0.2;fill:#2E855A;enable-background:new    ;}
	.st2{fill:#2E855A;}
	.st3{fill:#767D9F;}
	.st4{fill:#AE6E79;}
	.st5{fill:#0A006A;}
	.st6{fill:#504F60;}
	.st7{fill:#9C9CA1;}
	.st8{opacity:5.000000e-02;enable-background:new    ;}
	.st9{opacity:0.1;enable-background:new    ;}
	.st10{fill:#FFFFFF;}
	.st11{opacity:0.81;fill:#001CA9;enable-background:new    ;}
	.st12{fill:#444053;}
</style>
<path class="st0" d="M285,98.9c0,4.2-0.6,8.4-1.7,12.4c-1.1,3.9-2.7,7.6-4.8,11.1c0,12.5-8.4,23.3-20.7,28.5
	c-5.1,2.1-10.6,3.2-16.1,3.2H54.1c-10,0-19.3-2.7-26.9-7.3c-2.2-1.3-4.3-2.8-6.2-4.5c-8.5-7.3-13.7-17.4-13.7-28.5
	C2.5,106.4,0,97.8,0,89.1C0,70.7,10.8,55,26.3,48c2.1-0.9,4.2-1.7,6.4-2.3c3.6-1,7.3-1.5,11-1.5h0.4c0.9,0,1.7,0,2.6,0.1l0.3-0.5
	c0.3-0.6,0.7-1.1,1-1.7c0.7-1,1.3-2,2-3c0.7-1.1,1.5-2.1,2.3-3.1l0.2-0.3c0.5-0.6,0.9-1.1,1.4-1.7c1.5-1.8,3.1-3.5,4.7-5.1
	c18-17.6,46.1-29,77.7-29c24.6,0,47.1,6.9,64.4,18.2c6.5-3.7,13.9-5.6,21.4-5.6c24.3,0,44.1,20.1,44.1,44.8c0,1.6-0.1,3.1-0.2,4.7
	C278,70.6,285,84.3,285,98.9z"/>
<path class="st1" d="M156,60h6v6h-6V60z"/>
<path class="st2" d="M166,60h6v6h-6V60z"/>
<circle class="st3" cx="182.5" cy="90.5" r="8.5"/>
<path class="st4" d="M181.2,79.7c0.9,3.8,1.6,7.7,2.2,11.6c0.2,1.2,0.3,2.4-0.1,3.5c-0.4,0.9-1.1,1.6-1.6,2.4
	c-0.6,0.8-1,1.8-0.6,2.7c0.3,0.9,1.3,1.4,2.3,1.7c2.7,0.7,5.6,0.2,8.3-0.6c1.2-0.3,2.4-0.8,3.5-1.4c1.1-0.7,2.1-1.7,2.9-2.8
	c3.9-4.8,6.5-10.5,8.9-16.2c-3.2,0.3-6.3-1-8.3-3.4c-1-1.2-1.7-2.8-1.2-4.2c-1.6,0.9-3.6,1-5.3,1.6c-1.1,0.4-2.1,0.9-3.1,1.6
	c-1.2,0.7-2.4,1.4-3.6,2.1C184.1,79.1,182.8,79.8,181.2,79.7L181.2,79.7z"/>
<path class="st3" d="M201.8,86.1c-1.5,3-3.5,5.9-6.4,7.7c-2.9,1.8-6.7,2.3-9.5,0.5c-1.4-0.9-2.5-2.2-3.7-3.3c-1.2-1.1-2.8-2-4.4-1.9
	c-1.8,0.2-3.2,1.6-4.5,2.9c-1.8,2.1-3.6,4.2-4.9,6.7c-2.5,4.7-3.1,10.2-3,15.5c0.1,5.3,0.9,10.6,0.9,16c0,6.6-1.1,13.1-2.2,19.5
	c10.3-1.3,20.7,1.5,31,2.6c6.6,0.7,13.3,0.7,19.9,0.6c1.2,0,2.4,0,3.4-0.7c0.6-0.4,1.1-1,1.4-1.7c0.9-1.7,1.3-3.6,1.5-5.6
	c0.7-4.8,0.7-9.7,0.7-14.6c0-11.8,0.1-23.7-1.4-35.4c-0.4-2.9-0.8-5.8-1.9-8.5c-1.1-2.7-2.9-5.2-5.4-6.6c-1.6-0.9-5.4-2.6-7.3-1.6
	C203.8,79.3,202.8,84.1,201.8,86.1L201.8,86.1z"/>
<path class="st5" d="M201.2,118.7c-0.4-7.2-2-14.8,1.4-21.1c0.8-1.6-2.1-3.5-1.2-5c1.1-1.8,2-3.8,2.5-5.9c0.2-0.7,0.3-1.5,0.2-2.2
	c-0.3-1.3-1.6-2.1-2.7-2.9c-1.2-0.9-1.8-3.6-2.2-5c-0.4-1.4,3.1,0.3,4.5-0.2c2-0.7,4.5-0.3,6.4,0.5c1.1,0.4,2.3,0.4,3.5,0.5
	c2.3,0.1,4.5,0.1,6.8-0.2c1-0.1,2-0.3,3-0.3c2.6,0.1,4.8,1.9,6.4,4c1.5,2.1,2.5,4.5,3.8,6.7c1,1.9,2.3,3.6,3.2,5.6
	c0.8,1.7,1.3,3.6,1.8,5.4l1.3,4.7c0.2,0.7,0.3,1.4,0.3,2.1c-0.1,0.8-0.4,1.5-0.7,2.1c-1.3,2.5-2.9,4.9-4.6,7
	c-2.7,3.3-5.9,6.2-7.5,10.1c-0.6,1.5-1,3.1-1.3,4.8c-1.3,6.5-2.2,13-2.7,19.5c-4.4-2-9-3.3-13.8-3.8c-1.4-0.1-3.2,0.1-4.5-0.2
	c-2.2-0.6-2.5-4.3-2.8-6.3c-0.5-3.1-0.6-6.2-0.7-9.4C201.3,125.8,201.4,122.2,201.2,118.7z M152.5,106.4c1,6,2.2,12,4.5,17.6
	c-0.1,0.1-0.1,0.1-0.2,0.2c-0.2,0.2-0.4,0.3-0.6,0.5c-0.5,0.4-1.1,0.7-1.5,1.1c-0.2,0.2-0.3,0.4-0.4,0.6c-0.2,0.4-0.2,0.8,0,1.1
	c-1.2,0.5-2.6,0.4-3.9,0.3c-1.1,0-2.3,0-3.2,0.6c-1.3,0.9-1.7,2.6-1.9,4.1c-0.1,0.6-0.1,1.1-0.2,1.7c-0.3,2.6-0.3,5.2-0.1,7.8
	c-4.1-0.1-7.8-2.2-11.3-4.3c-0.8-0.5-1.6-1-2.1-1.7c-0.5-0.8-0.7-1.7-0.6-2.6c0-0.1,0-0.3,0-0.4c0.1-0.7,0.3-1.5,0.6-2.2
	c1.1-3,2.7-5.7,4.8-8.1c0.9-1,1.9-2.1,2.3-3.4c0.2-0.6,0.2-1.2,0.4-1.7c0.8-2.5,3.8-3.6,4.8-6c0.3-0.6,0.4-1.2,0.7-1.7
	c0.3-0.5,0.6-0.9,1.1-1.2c0.2-0.2,0.4-0.3,0.6-0.4c1.8-1.4,3.4-2.8,5.1-4.3c0.3-0.3,0.6-0.6,0.9-0.9
	C152.2,104.1,152.3,105.3,152.5,106.4L152.5,106.4z"/>
<path class="st5" d="M178.2,88.4c-0.4,0.4-0.7,0.7-1.1,1.1l-0.1,0.1l-0.4,0.4c-0.7,0.6-1.4,1.4-1.9,2.2l0,0.1
	c-1.3,2.3-0.8,5.1-0.4,7.6c0.4,3.2,0.6,6.4,0.6,9.7c-0.1,4.5-0.6,8.9-0.6,13.4c0,1,0,2,0.1,3c0.1,1.6,0.2,3.3,0.3,4.9
	c0.2,1.8,0.4,3.6,0.5,5.4c0.1,1.4,0.3,2.8,0.4,4.2c0.1,0.7,0.1,1.4,0.2,2.2c0.1,0.8,0.1,1.7,0.1,2.5c0,0.5,0,1.1,0,1.6v0.9
	c0,0.6,0,1.2,0,1.7c0,0.7-0.1,1.5-0.2,2.2c-0.1,0.8-0.2,1.7-0.8,2.3c0,0-0.1,0.1-0.1,0.1l-0.8-0.1c-5.5-0.7-11.1-0.8-16.7-0.3
	c0.1-0.8,0.2-1.7,0.3-2.5c0.2-1.4,0.3-2.7,0.5-4.1c0.4-4,0.7-8.1,0.8-12.1c0-1.1,0-2.2,0-3.3c0-1.1,0-2.2,0-3.3c0-0.4,0-0.7,0-1.1
	c0-0.3-0.1-0.6-0.1-1c-0.2-0.7-0.4-1.4-0.7-2.1c-0.1-0.1-0.1-0.2-0.2-0.4c0-0.1-0.1-0.1-0.1-0.2c1.4-1.3,2.4-3,3.4-4.7
	c1.6-2.7,3.2-5.5,3.5-8.7c0.3-3.1-1.3-6.6-4.3-7.6c-0.8-0.2-1.7-0.3-2.5-0.5c-0.8-0.1-2.4-0.5-3.3-1c-0.5,0.5-1,1-1.5,1.5
	c0-0.8,0.2-1.5,0.5-2.2l0.4,0c0-0.1,0-0.2,0-0.2c0-0.3,0.2-0.6,0.6-0.9c1.2-1,3-1.2,3.7-2.6c0.3-0.6,0.4-1.2,0.6-1.8
	c0.7-1.7,2.8-2.3,4-3.6s1.5-3.2,2.5-4.7c0.7-1.1,1.8-1.9,3-2.5c0.1,0,0.2-0.1,0.3-0.1c2.1-0.9,4.5-1.1,6.6-1.1c0.8,0,3,0,4,0.4
	c0.2,0.1,0.3,0.2,0.5,0.3C180.8,84.9,179,87.5,178.2,88.4L178.2,88.4z"/>
<path class="st5" d="M153.7,99.7c3.9-1.2,8.1-0.7,11.6,1.2c1.8,1,3.4,2.4,4.4,4.2c1.5,2.7,1.4,6,1.3,9.1c-0.1,1.6-0.1,3.2-0.8,4.6
	c-0.8,1.6-2.3,2.7-3.8,3.6c-0.9,0.6-2,1.1-3.1,1.3c-1.7,0.4-3.4,0.1-5.1-0.3c-1.8-0.3-3.8-0.8-5.1-2.1c-0.7-0.8-1.2-1.8-1.6-2.9
	c-0.6-1.5-1.2-2.9-1.7-4.4c-1-2.6-1.3-4.7,0-7.2c0.6-1.1,1.3-2.2,1.9-3.3C152.1,103.1,153.2,99.8,153.7,99.7L153.7,99.7z"/>
<path class="st6" d="M258,143.4v7.3c-5.1,2.1-10.6,3.2-16.1,3.1h-67c0,0-0.1,0.1-0.1,0.1l-0.8-0.1H54.9c-10,0-19.3-2.7-26.9-7.2
	v-11.2l57.3-6.5h0l33.4,2.8l8.6,0.7l4.5,0.4l9.3,0.8l4.8,0.4l7,0.6l1,0.1l5,0.4l6.8,0.6l9.6,0.8l15.9,1.3l11.2,0.9l18.4,1.5l3.5,0.3
	l0.4,0l0.3,0l4.6,0.4l5.1,0.4l0.6,0.1L258,143.4z"/>
<path class="st7" d="M189,142.7L117.8,130l-2.8,14.6l32.7,4.1l10.1,1.3l27.7-5.7L189,142.7z"/>
<path class="st7" d="M154,149.5l35.5-7.5c0.4-0.1,0.7,0,1,0.3c0.3,0.3,0.4,0.7,0.4,1.1c0,0.7-0.4,1.2-1,1.4l-34.7,7.3L154,149.5
	L154,149.5z"/>
<path class="st4" d="M168,127.6c1.1-0.1,2.3-0.3,3.3-0.7c1.2-0.6,2.2-1.6,3.4-2.4c2.5-1.7,5.9-1.9,8.8-0.9c2.9,1,5.3,3,7,5.5
	c1.1,1.6,2,3.7,1.2,5.5c-0.3,0.6-0.6,1.1-1,1.5l-2.1,2.6c-0.4,0.6-0.9,1-1.4,1.5c-0.8,0.5-1.7,0.8-2.7,0.9c-2.5,0.4-5.1,0.2-7.6,0.3
	c-4.4,0.3-8.6,1.6-13,1.6c-2.5,0-5-0.5-7.5-1l-10.9-2.2c-1.9-0.4-4-0.9-4.9-2.6c-0.4-0.7-0.5-1.6-0.5-2.4c-0.1-2.3,0-4.9,1.7-6.5
	c1.6-1.6,4-2.1,5.9-3.2c2.3-1.4,3-1,5.4,0.1C157.8,127.2,162.9,128.1,168,127.6z"/>
<path class="st8" d="M168,127.6c1.1-0.1,2.3-0.3,3.3-0.7c1.2-0.6,2.2-1.6,3.4-2.4c2.5-1.7,5.9-1.9,8.8-0.9c2.9,1,5.3,3,7,5.5
	c1.1,1.6,2,3.7,1.2,5.5c-0.3,0.6-0.6,1.1-1,1.5l-2.1,2.6c-0.4,0.6-0.9,1-1.4,1.5c-0.8,0.5-1.7,0.8-2.7,0.9c-2.5,0.4-5.1,0.2-7.6,0.3
	c-4.4,0.3-8.6,1.6-13,1.6c-2.5,0-5-0.5-7.5-1l-10.9-2.2c-1.9-0.4-4-0.9-4.9-2.6c-0.4-0.7-0.5-1.6-0.5-2.4c-0.1-2.3,0-4.9,1.7-6.5
	c1.6-1.6,4-2.1,5.9-3.2c2.3-1.4,3-1,5.4,0.1C157.8,127.2,162.9,128.1,168,127.6z"/>
<path class="st4" d="M212.7,124.3c-3,1.2-6.1,2.4-9.2,3.1c-5.3,1.2-10.8,1-16.1,2.4c-2.8,0.7-5.5,1.9-8.4,1.7
	c-1.3-0.1-2.5-0.5-3.7-0.8c-7-1.8-14.9-1.2-20.6,3.3c-1.9,1.5-3.5,3.5-5,5.5c-0.6,0.9-0.8,2-0.5,3.1c0.3,1.1,1,1.9,2,2.4
	c2.2,1,4.6,1.7,7,1.9c3.2,0.3,6.5-0.2,9.7-0.6c4.8-0.7,9.5-1.4,14.3-2.2c1.7-0.3,3.4-0.6,5.1-0.8c12.3-1.6,24.9,0.3,37.3-1
	c1.3-0.1,2.5-0.3,3.7-0.9c2.9-1.4,4.3-5,3.7-8.2c-0.6-3.2-2.9-5.9-5.7-7.5c-2.3-1.4-4.8-1.9-7.4-2.5
	C216.4,122.6,215,123.4,212.7,124.3L212.7,124.3z"/>
<path class="st9" d="M239.4,105.7c1.4,1.8,1.7,4.2,1.6,6.5c-0.2,2.3-0.7,4.5-0.8,6.8c-0.1,3.1,0.7,6.2,0.5,9.4
	c-0.1,2.2-0.6,4.3-1.2,6.4c-0.7,2.5-1.8,5.1-4.1,6.3c-3.1,1.6-9.6,0.7-12.8,1.9c0.3-1.8,3.1-4.4,3.4-6.2c0.2-1.3,0.4-2.5,0.2-3.8
	c-0.3-1.6-1.2-3-2.4-4.2c-1.8-1.9-4.2-3.3-6.8-3.7s-8.9-0.1-11,1.5c-0.3-1.7,4.5-3.3,6.2-3.6c0.8-0.2,1.8-0.1,2.4-0.6
	c1.3-1,0.4-2.9,0.4-4.5c0-1.3,0.8-2.4,0.9-3.6c0.3-2-1.1-4-0.6-6c0.2-0.7,0.6-1.4,0.9-2.1c0.9-2.1,0.5-4.5,0-6.8
	c-0.3-1.4-0.6-3,0.2-4.2c0.7-1.1,2.8,2.9,4.2,2.7c4.5-0.6,8.5-3.8,12.1-1.2c1.8,1.3,2.1,2.8,2.8,4.7
	C236.4,103.2,238.2,104.1,239.4,105.7L239.4,105.7z"/>
<path class="st5" d="M240.4,105.4c1.4,1.8,1.7,4.3,1.6,6.6c-0.2,2.3-0.7,4.5-0.8,6.8c-0.1,3.1,0.7,6.3,0.5,9.4
	c-0.1,2.2-0.6,4.3-1.2,6.5c-0.7,2.5-1.8,5.2-4.1,6.4c-3.1,1.6-9.6,0.7-12.8,1.9c0.3-1.8,3.1-4.5,3.4-6.3c0.2-1.3,0.4-2.6,0.2-3.8
	c-0.3-1.6-1.2-3-2.4-4.2c-1.8-1.9-4.2-3.3-6.8-3.8c-2.6-0.5-8.9-0.1-11,1.5c-0.3-1.7,4.5-3.3,6.2-3.6c0.8-0.2,1.8-0.1,2.4-0.6
	c1.3-1,0.4-2.9,0.4-4.5c0-1.3,0.8-2.4,0.9-3.7c0.3-2-1.1-4.1-0.6-6c0.2-0.7,0.6-1.4,0.9-2.1c0.9-2.1,0.5-4.5,0-6.8
	c-0.3-1.4-0.6-3,0.2-4.2c0.7-1.1,2.2-1.6,3.5-1.7c4.5-0.6,9.1,0.6,12.8,3.2c1.8,1.4,2.1,2.8,2.8,4.7
	C237.4,103,239.2,103.9,240.4,105.4L240.4,105.4z"/>
<path class="st7" d="M75.1,94.3l13.6,49.6c0.3,1.2,1.4,2.2,2.7,2.3l61.1,5.8c1,0.1,2-0.3,2.7-1.1c0.7-0.8,0.9-1.8,0.7-2.8L141,88.4
	c-0.4-1.5-1.8-2.5-3.3-2.3l-59.9,4.4c-0.9,0.1-1.8,0.5-2.3,1.3C75,92.5,74.9,93.4,75.1,94.3L75.1,94.3z"/>
<circle class="st10" cx="196" cy="96" r="7"/>
<path class="st10" d="M201,84.1c0,0,1.3,4.4-2.5,6.2l-0.5,1l2.4,2.7c0,0,2.9-6.1,2.6-8.3C203,85.7,202.5,83.5,201,84.1z"/>
<circle class="st11" cx="197" cy="96" r="6"/>
<path class="st11" d="M204.7,87l-1.1-1.6l-1.6-0.2c0.3-5.2-1.2-6.7-1.2-6.7l-0.4,0l-1.6-0.1l-2.9-2.6V75c4.1,0.4,6.4,2.1,7.6,4.1
	C205.8,82.6,204.7,87,204.7,87z"/>
<path class="st11" d="M200,75.6V77l-1.4-0.2L196,73C196,73,200,74.3,200,75.6z M203.8,87l-0.8-1.8V78C204.6,82,203.8,87,203.8,87z"
	/>
<ellipse transform="matrix(0.866 -0.5 0.5 0.866 -22.6409 103.3219)" class="st10" cx="181.5" cy="93.9" rx="3.6" ry="6.6"/>
<path class="st11" d="M183.1,92.8c1.8,2.9,4.1,4.9,2.3,5.8c-1.7,0.9-6.8,0.5-8.6-2.5c-1.8-2.9-0.2-7,1.6-7.9
	C180.1,87.3,181.2,89.8,183.1,92.8L183.1,92.8z"/>
<path class="st9" d="M198,69.5c0,9.9-6.9,19.5-16.9,19.5c-10,0-18.1-8.1-18.1-18s8.1-18,18.1-18C191.1,53,198,59.5,198,69.5z"/>
<circle class="st4" cx="182" cy="71" r="18"/>
<path class="st12" d="M180.2,64.5c2.2,0.8,3.4,3.1,5.4,4.4c2.8,1.8,6.3,1.3,9.5,0.4c1.8-0.5,3.6-1.1,5.3-0.5
	c0.3,0.1,0.5,0.2,0.8,0.1c0.4-0.1,0.6-0.5,0.7-0.9c2.1-6.5,1.2-14-2-20c-0.8-1.6-1.8-3.1-3.2-4.2c-1.1-0.9-2.4-1.4-3.6-1.9
	c-2.3-0.9-4.8-1.5-7.2-1.8c-0.4-0.1-0.9-0.1-1.3,0c-0.6,0.1-1.1,0.4-1.7,0.7c-2.3,1.3-4.8,2-7.5,2.1c-3.5,0.1-7.5-0.7-10.2,1.6
	c-3.2,2.8-2.4,8.2-4.5,12c-1.4,2.5-4.1,4.3-4.5,7.1c-0.1,0.9-0.1,1.7,0.2,2.6c1,4.4,5.1,7.8,9.5,7.8c0.7,0.1,1.3-0.1,1.9-0.4
	c0.4-0.3,0.7-0.6,1-1C171.5,69.1,174.8,62.4,180.2,64.5L180.2,64.5z"/>
<path class="st9" d="M201.9,64.3c-0.1,0.4-0.3,0.8-0.7,0.9c-0.3,0-0.6,0-0.8-0.1c-1.7-0.5-3.6,0.1-5.3,0.5c-3.1,0.9-6.7,1.3-9.5-0.4
	c-1.9-1.3-3.2-3.5-5.4-4.3c-5.4-2-8.7,4.5-11.5,7.9c-0.3,0.4-0.6,0.7-1,1c-0.6,0.3-1.3,0.5-1.9,0.4c-4.4-0.1-8.5-3.4-9.5-7.7
	c-0.1-0.2-0.1-0.5-0.1-0.8c0,0,0,0,0,0.1c-0.1,0.8-0.1,1.7,0.2,2.5c1,4.3,5.1,7.6,9.5,7.7c0.7,0.1,1.3-0.1,1.9-0.4
	c0.4-0.3,0.7-0.6,1-1c2.9-3.4,6.1-9.9,11.5-7.9c2.2,0.8,3.4,3.1,5.4,4.3c2.7,1.8,6.3,1.3,9.5,0.4c1.7-0.5,3.6-1.1,5.3-0.5
	c0.3,0.1,0.5,0.2,0.8,0.1c0.4-0.1,0.6-0.5,0.7-0.9c0.9-2.6,1.2-5.4,1.1-8.1C202.9,60.1,202.5,62.3,201.9,64.3L201.9,64.3z"/>
</svg>
