<svg xmlns="http://www.w3.org/2000/svg" xmlns:xlink="http://www.w3.org/1999/xlink" viewBox="0 0 559.09 154.57"><defs><style>.cls-1{fill:url(#Dégradé_sans_nom_5);}.cls-2{fill:url(#Dégradé_sans_nom_5-2);}.cls-3{fill:#384d9c;}.cls-4{fill:#f6f6f6;}</style><linearGradient id="Dégradé_sans_nom_5" y1="39.65" x2="85.04" y2="39.65" gradientUnits="userSpaceOnUse"><stop offset="0" stop-color="#2e4b9a"/><stop offset="0.24" stop-color="#324d9b"/><stop offset="0.48" stop-color="#3e539f"/><stop offset="0.72" stop-color="#535ca5"/><stop offset="0.97" stop-color="#6f69ad"/><stop offset="1" stop-color="#746bae"/></linearGradient><linearGradient id="Dégradé_sans_nom_5-2" y1="100.21" x2="85.04" y2="100.21" xlink:href="#Dégradé_sans_nom_5"/></defs><title>Fichier 14</title><g id="Calque_2" data-name="Calque 2"><g id="Calque_1-2" data-name="Calque 1"><polygon class="cls-1" points="0 0 0 22.11 37.61 39.65 0 57.19 0 79.31 85.04 39.65 0 0"/><polygon class="cls-2" points="61.33 74.86 85.04 85.92 0 125.57 0 103.3 61.33 74.86"/><path class="cls-3" d="M95.68,125.57V2.66h17.44V125.57Z"/><path class="cls-3" d="M131.16,125.57V2.66h24.07l34.1,95.09,35-95.09H246V125.57H229.65V25.73l-33.84,91.62H179L146.11,25.49V125.57Z"/><path class="cls-4" d="M262.09,150.55l1.6-11.76a55,55,0,0,0,23.42,5.53q23,0,23-24.43V108.06A27.1,27.1,0,0,1,300,119.69a26.76,26.76,0,0,1-14.59,4.15q-13.65,0-21.62-9.79t-8-26.54q0-17.16,9.07-28t23.49-10.8Q301,48.75,310.12,59V50.41h13.64v54.67q0,17.65-1.84,26.13A28.77,28.77,0,0,1,315,145.09q-8.94,9.48-27.89,9.48A78.62,78.62,0,0,1,262.09,150.55Zm48-51.06V68.33Q301.11,59,290.5,59a17.11,17.11,0,0,0-14.76,7.54q-5.34,7.53-5.34,20.87,0,24.46,17.4,24.47Q299.65,111.87,310.12,99.49Z"/><path class="cls-4" d="M368.75,127.3q-16.54,0-26.19-10.59T332.9,88q0-18.13,9.66-28.68t26.19-10.56q16.54,0,26.19,10.56T404.6,88q0,18.14-9.66,28.72T368.75,127.3Zm0-10.24q10.15,0,15.75-7.62T390.07,88q0-13.84-5.6-21.42T368.72,59Q358.55,59,353,66.57T347.44,88q0,13.85,5.56,21.45T368.72,117.06Z"/><path class="cls-4" d="M412.71,125.57v-12q5.94-13.92,24.05-30.32l7.81-7q15.06-13.64,15.06-27.06,0-8.58-5.15-13.5t-14.2-4.91q-10.57,0-25,8.16V27a63.13,63.13,0,0,1,27.13-6.44q14.39,0,23.08,7.76t8.68,20.55a30.45,30.45,0,0,1-4.39,16.33q-4.39,7.13-16.37,17.3L448.14,87q-16.39,13.92-19,26.58h44.5v12Z"/><path class="cls-4" d="M532.58,125.57v-29H486.49V86.26l46.09-63.11h12.81V85.43h13.7V96.57h-13.7v29ZM499.87,85.43h33.61V39.87Z"/></g></g></svg>